<svg width="30" height="24" viewBox="0 0 30 24" xmlns="http://www.w3.org/2000/svg">
<g fill-rule="nonzero" fill="none">
<path d="M12.621 23.628h-5.53V17.35c0-2.39 1.957-4.35 4.35-4.35h1.184v10.63h-.004z" fill="#CA4948"></path>
<path d="M12.621 23.628h5.53V17.35c0-2.39-1.956-4.35-4.35-4.35h-1.183v10.63h.003z" fill="#6C9FC2"></path>
<path d="M12.621 11.07a5.206 5.206 0 010-10.412V11.07z" fill="#CA4948"></path>
<path d="M25.111 23.628h-5.53V17.35c0-2.39 1.957-4.35 4.35-4.35h1.184v10.63h-.004zM25.108 11.07a5.206 5.206 0 010-10.412V11.07z" fill="#292929"></path>
<path d="M12.621 11.07a5.206 5.206 0 000-10.412V11.07zM.135 23.628h5.53V17.35c0-2.39-1.957-4.35-4.35-4.35H.132v10.63h.003zM.135 11.07a5.206 5.206 0 000-10.412V11.07z" fill="#6C9FC2"></path>
</g>
</svg>